%TF.GenerationSoftware,KiCad,Pcbnew,10.0.4-1.fc44*%
%TF.CreationDate,2026-07-28T12:04:36+02:00*%
%TF.ProjectId,omi,6f6d692e-6b69-4636-9164-5f7063625858,rev?*%
%TF.SameCoordinates,Original*%
%TF.FileFunction,Legend,Top*%
%TF.FilePolarity,Positive*%
%FSLAX46Y46*%
G04 Gerber Fmt 4.6, Leading zero omitted, Abs format (unit mm)*
G04 Created by KiCad (PCBNEW 10.0.4-1.fc44) date 2026-07-28 12:04:36*
%MOMM*%
%LPD*%
G01*
G04 APERTURE LIST*
G04 Aperture macros list*
%AMRoundRect*
0 Rectangle with rounded corners*
0 $1 Rounding radius*
0 $2 $3 $4 $5 $6 $7 $8 $9 X,Y pos of 4 corners*
0 Add a 4 corners polygon primitive as box body*
4,1,4,$2,$3,$4,$5,$6,$7,$8,$9,$2,$3,0*
0 Add four circle primitives for the rounded corners*
1,1,$1+$1,$2,$3*
1,1,$1+$1,$4,$5*
1,1,$1+$1,$6,$7*
1,1,$1+$1,$8,$9*
0 Add four rect primitives between the rounded corners*
20,1,$1+$1,$2,$3,$4,$5,0*
20,1,$1+$1,$4,$5,$6,$7,0*
20,1,$1+$1,$6,$7,$8,$9,0*
20,1,$1+$1,$8,$9,$2,$3,0*%
%AMFreePoly0*
4,1,14,0.885355,0.885355,0.900000,0.850000,0.900000,-0.850000,0.885355,-0.885355,0.850000,-0.900000,-0.850000,-0.900000,-0.885355,-0.885355,-0.900000,-0.850000,-0.900000,0.420000,-0.885355,0.455355,-0.455355,0.885355,-0.420000,0.900000,0.850000,0.900000,0.885355,0.885355,0.885355,0.885355,$1*%
%AMFreePoly1*
4,1,61,2.235355,0.825355,2.250000,0.790000,2.250000,0.590000,2.235355,0.554645,2.200000,0.540000,1.480000,0.540000,1.480000,0.380000,2.200000,0.380000,2.235355,0.365355,2.250000,0.330000,2.250000,0.130000,2.235355,0.094645,2.200000,0.080000,1.480000,0.080000,1.480000,-0.080000,2.200000,-0.080000,2.235355,-0.094645,2.250000,-0.130000,2.250000,-0.330000,2.235355,-0.365355,
2.200000,-0.380000,1.480000,-0.380000,1.480000,-0.540000,2.200000,-0.540000,2.235355,-0.554645,2.250000,-0.590000,2.250000,-0.790000,2.235355,-0.825355,2.200000,-0.840000,-2.200000,-0.840000,-2.235355,-0.825355,-2.250000,-0.790000,-2.250000,-0.590000,-2.235355,-0.554645,-2.200000,-0.540000,-1.480000,-0.540000,-1.480000,-0.380000,-2.200000,-0.380000,-2.235355,-0.365355,-2.250000,-0.330000,
-2.250000,-0.130000,-2.235355,-0.094645,-2.200000,-0.080000,-1.480000,-0.080000,-1.480000,0.080000,-2.200000,0.080000,-2.235355,0.094645,-2.250000,0.130000,-2.250000,0.330000,-2.235355,0.365355,-2.200000,0.380000,-1.480000,0.380000,-1.480000,0.540000,-2.200000,0.540000,-2.235355,0.554645,-2.250000,0.590000,-2.250000,0.790000,-2.235355,0.825355,-2.200000,0.840000,2.200000,0.840000,
2.235355,0.825355,2.235355,0.825355,$1*%
G04 Aperture macros list end*
%ADD10C,0.120000*%
%ADD11C,0.150000*%
%ADD12C,0.250000*%
%ADD13C,0.200000*%
%ADD14C,0.300000*%
%ADD15C,0.000000*%
%ADD16RoundRect,0.225000X-0.225000X-0.250000X0.225000X-0.250000X0.225000X0.250000X-0.225000X0.250000X0*%
%ADD17RoundRect,0.200000X0.275000X-0.200000X0.275000X0.200000X-0.275000X0.200000X-0.275000X-0.200000X0*%
%ADD18R,1.500000X0.900000*%
%ADD19R,0.900000X1.500000*%
%ADD20C,0.600000*%
%ADD21R,3.900000X3.900000*%
%ADD22RoundRect,0.300000X0.400000X0.300000X-0.400000X0.300000X-0.400000X-0.300000X0.400000X-0.300000X0*%
%ADD23RoundRect,0.250000X-0.250000X-0.475000X0.250000X-0.475000X0.250000X0.475000X-0.250000X0.475000X0*%
%ADD24RoundRect,0.250000X0.350000X-0.250000X0.350000X0.250000X-0.350000X0.250000X-0.350000X-0.250000X0*%
%ADD25RoundRect,0.200000X-0.200000X-0.275000X0.200000X-0.275000X0.200000X0.275000X-0.200000X0.275000X0*%
%ADD26RoundRect,0.200000X0.200000X0.275000X-0.200000X0.275000X-0.200000X-0.275000X0.200000X-0.275000X0*%
%ADD27RoundRect,0.250000X0.475000X-0.250000X0.475000X0.250000X-0.475000X0.250000X-0.475000X-0.250000X0*%
%ADD28O,0.850000X0.280000*%
%ADD29O,0.280000X0.850000*%
%ADD30FreePoly0,0.000000*%
%ADD31RoundRect,0.250000X1.650000X-0.250000X1.650000X0.250000X-1.650000X0.250000X-1.650000X-0.250000X0*%
%ADD32RoundRect,0.225000X0.225000X0.250000X-0.225000X0.250000X-0.225000X-0.250000X0.225000X-0.250000X0*%
%ADD33RoundRect,0.100000X-0.130000X-0.100000X0.130000X-0.100000X0.130000X0.100000X-0.130000X0.100000X0*%
%ADD34RoundRect,0.056000X-0.056000X-0.196500X0.056000X-0.196500X0.056000X0.196500X-0.056000X0.196500X0*%
%ADD35RoundRect,0.425000X-0.725000X-0.425000X0.725000X-0.425000X0.725000X0.425000X-0.725000X0.425000X0*%
%ADD36C,1.500000*%
%ADD37RoundRect,0.450000X-0.450000X-0.950050X0.450000X-0.950050X0.450000X0.950050X-0.450000X0.950050X0*%
%ADD38RoundRect,0.450000X-0.450000X-0.800000X0.450000X-0.800000X0.450000X0.800000X-0.450000X0.800000X0*%
%ADD39RoundRect,0.450000X-0.450000X-1.050000X0.450000X-1.050000X0.450000X1.050000X-0.450000X1.050000X0*%
%ADD40RoundRect,0.100000X0.100000X-0.130000X0.100000X0.130000X-0.100000X0.130000X-0.100000X-0.130000X0*%
%ADD41R,1.700000X1.700000*%
%ADD42C,1.700000*%
%ADD43RoundRect,0.218750X-0.218750X-0.256250X0.218750X-0.256250X0.218750X0.256250X-0.218750X0.256250X0*%
%ADD44RoundRect,0.212500X-0.637500X0.212500X-0.637500X-0.212500X0.637500X-0.212500X0.637500X0.212500X0*%
%ADD45RoundRect,0.070000X0.330000X-0.070000X0.330000X0.070000X-0.330000X0.070000X-0.330000X-0.070000X0*%
%ADD46RoundRect,0.070000X-0.070000X-0.330000X0.070000X-0.330000X0.070000X0.330000X-0.070000X0.330000X0*%
%ADD47RoundRect,0.400000X-0.400000X-0.400000X0.400000X-0.400000X0.400000X0.400000X-0.400000X0.400000X0*%
%ADD48C,0.850000*%
%ADD49RoundRect,0.150000X-0.150000X-0.500000X0.150000X-0.500000X0.150000X0.500000X-0.150000X0.500000X0*%
%ADD50RoundRect,0.175000X-0.350000X-0.175000X0.350000X-0.175000X0.350000X0.175000X-0.350000X0.175000X0*%
%ADD51RoundRect,0.250000X-0.325000X-0.650000X0.325000X-0.650000X0.325000X0.650000X-0.325000X0.650000X0*%
%ADD52RoundRect,0.133000X-0.403000X0.133000X-0.403000X-0.133000X0.403000X-0.133000X0.403000X0.133000X0*%
%ADD53RoundRect,0.062500X0.062500X0.287500X-0.062500X0.287500X-0.062500X-0.287500X0.062500X-0.287500X0*%
%ADD54RoundRect,0.062500X-0.062500X-0.287500X0.062500X-0.287500X0.062500X0.287500X-0.062500X0.287500X0*%
%ADD55FreePoly1,180.000000*%
%ADD56C,0.650000*%
%ADD57RoundRect,0.150000X0.575000X-0.150000X0.575000X0.150000X-0.575000X0.150000X-0.575000X-0.150000X0*%
%ADD58RoundRect,0.075000X0.650000X-0.075000X0.650000X0.075000X-0.650000X0.075000X-0.650000X-0.075000X0*%
%ADD59O,2.100000X1.000000*%
%ADD60O,1.600000X1.000000*%
%ADD61RoundRect,0.250000X-0.250000X-0.625000X0.250000X-0.625000X0.250000X0.625000X-0.250000X0.625000X0*%
%ADD62RoundRect,0.150000X0.150000X0.700000X-0.150000X0.700000X-0.150000X-0.700000X0.150000X-0.700000X0*%
%ADD63RoundRect,0.250000X0.250000X1.150000X-0.250000X1.150000X-0.250000X-1.150000X0.250000X-1.150000X0*%
%ADD64R,1.000000X0.750000*%
%ADD65O,0.364000X1.742000*%
%ADD66RoundRect,0.100000X-0.100000X-0.250000X0.100000X-0.250000X0.100000X0.250000X-0.100000X0.250000X0*%
%ADD67RoundRect,0.087500X0.412500X-0.087500X0.412500X0.087500X-0.412500X0.087500X-0.412500X-0.087500X0*%
%ADD68RoundRect,0.087500X0.087500X-0.412500X0.087500X0.412500X-0.087500X0.412500X-0.087500X-0.412500X0*%
%ADD69RoundRect,0.487500X0.487500X-0.487500X0.487500X0.487500X-0.487500X0.487500X-0.487500X-0.487500X0*%
%ADD70RoundRect,0.225000X0.250000X-0.225000X0.250000X0.225000X-0.250000X0.225000X-0.250000X-0.225000X0*%
%ADD71C,0.990600*%
%ADD72C,0.787400*%
%ADD73C,0.250000*%
%ADD74R,4.850000X4.850000*%
G04 APERTURE END LIST*
%TO.C,C55*%
D10*
X153859420Y-120490000D02*
X154140580Y-120490000D01*
X153859420Y-121510000D02*
X154140580Y-121510000D01*
%TO.C,R41*%
X146477500Y-140737258D02*
X146477500Y-140262742D01*
X147522500Y-140737258D02*
X147522500Y-140262742D01*
%TO.C,U1*%
X112800000Y-101100000D02*
X112800000Y-107300000D01*
X112800000Y-101100000D02*
X131200000Y-101100000D01*
X112800000Y-125950000D02*
X112800000Y-126950000D01*
X112800000Y-126950000D02*
X114300000Y-126950000D01*
X131200000Y-101100000D02*
X131200000Y-107300000D01*
X131200000Y-126950000D02*
X129700000Y-126950000D01*
X131200000Y-126950000D02*
X131200000Y-125950000D01*
X112800000Y-107975000D02*
X112300000Y-107975000D01*
X112800000Y-107475000D01*
X112800000Y-107975000D01*
G36*
X112800000Y-107975000D02*
G01*
X112300000Y-107975000D01*
X112800000Y-107475000D01*
X112800000Y-107975000D01*
G37*
%TO.C,Y1*%
D11*
X172971400Y-100521500D02*
X177028600Y-100521500D01*
X172971400Y-103878700D02*
X172971400Y-100521500D01*
X177028600Y-100521500D02*
X177028600Y-103878700D01*
X177028600Y-103878700D02*
X172971400Y-103878700D01*
X177257200Y-100292900D02*
X175400000Y-100292900D01*
X177257200Y-101950100D02*
X177257200Y-100292900D01*
%TO.C,C60*%
D10*
X153738748Y-122765000D02*
X154261252Y-122765000D01*
X153738748Y-124235000D02*
X154261252Y-124235000D01*
%TO.C,C34*%
X175959420Y-104890000D02*
X176240580Y-104890000D01*
X175959420Y-105910000D02*
X176240580Y-105910000D01*
%TO.C,D3*%
D12*
X109053500Y-143520000D02*
X109053500Y-140520000D01*
X109492000Y-142508000D02*
X110508000Y-142508000D01*
X109593600Y-141492000D02*
X110406400Y-141492000D01*
X110000000Y-142508000D02*
X109593600Y-141492000D01*
X110000000Y-142762000D02*
X110000000Y-141238000D01*
X110406400Y-141492000D02*
X110000000Y-142508000D01*
X110933100Y-143506700D02*
X110933100Y-140506700D01*
%TO.C,R40*%
D10*
X123762742Y-141477500D02*
X124237258Y-141477500D01*
X123762742Y-142522500D02*
X124237258Y-142522500D01*
%TO.C,R35*%
X172737258Y-133477500D02*
X172262742Y-133477500D01*
X172737258Y-134522500D02*
X172262742Y-134522500D01*
%TO.C,C32*%
X153559420Y-103290000D02*
X153840580Y-103290000D01*
X153559420Y-104310000D02*
X153840580Y-104310000D01*
%TO.C,C44*%
X129265000Y-137261252D02*
X129265000Y-136738748D01*
X130735000Y-137261252D02*
X130735000Y-136738748D01*
%TO.C,R39*%
X114762742Y-137477500D02*
X115237258Y-137477500D01*
X114762742Y-138522500D02*
X115237258Y-138522500D01*
%TO.C,U4*%
D13*
X124275100Y-135274900D02*
X124725000Y-135274900D01*
X124275100Y-135724700D02*
X124275100Y-135274900D01*
X124275100Y-138724700D02*
X124275100Y-138274900D01*
X124725000Y-138724700D02*
X124275100Y-138724700D01*
X127275100Y-135274900D02*
X127725000Y-135274900D01*
X127275100Y-138724700D02*
X127725000Y-138724700D01*
X127725000Y-135274900D02*
X127725000Y-135724700D01*
X127725000Y-138724700D02*
X127725000Y-138274900D01*
D14*
X123924900Y-135475800D02*
G75*
G02*
X123924900Y-135478300I37490J-1250D01*
G01*
%TO.C,C65*%
D10*
X153859420Y-125490000D02*
X154140580Y-125490000D01*
X153859420Y-126510000D02*
X154140580Y-126510000D01*
%TO.C,C43*%
X120738748Y-138265000D02*
X121261252Y-138265000D01*
X120738748Y-139735000D02*
X121261252Y-139735000D01*
%TO.C,R19*%
X127762742Y-131477500D02*
X128237258Y-131477500D01*
X127762742Y-132522500D02*
X128237258Y-132522500D01*
%TO.C,L2*%
D11*
X135604500Y-134929900D02*
X135604500Y-139082800D01*
X135604500Y-139082800D02*
X135820000Y-139080000D01*
X135800000Y-134930000D02*
X135604500Y-134929900D01*
X139590000Y-139070000D02*
X139796200Y-139070000D01*
X139796200Y-134917600D02*
X139600000Y-134920000D01*
X139796200Y-139070000D02*
X139796200Y-134917600D01*
%TO.C,C51*%
D10*
X131859420Y-129490000D02*
X132140580Y-129490000D01*
X131859420Y-130510000D02*
X132140580Y-130510000D01*
%TO.C,C62*%
X159287580Y-124352000D02*
X159006420Y-124352000D01*
X159287580Y-125372000D02*
X159006420Y-125372000D01*
%TO.C,R34*%
X176237258Y-133477500D02*
X175762742Y-133477500D01*
X176237258Y-134522500D02*
X175762742Y-134522500D01*
%TO.C,R21*%
X131477500Y-138237258D02*
X131477500Y-137762742D01*
X132522500Y-138237258D02*
X132522500Y-137762742D01*
%TO.C,C48*%
X148265000Y-134261252D02*
X148265000Y-133738748D01*
X149735000Y-134261252D02*
X149735000Y-133738748D01*
%TO.C,C68*%
X170317580Y-128093000D02*
X170036420Y-128093000D01*
X170317580Y-129113000D02*
X170036420Y-129113000D01*
%TO.C,C27*%
X149859420Y-110090000D02*
X150140580Y-110090000D01*
X149859420Y-111110000D02*
X150140580Y-111110000D01*
%TO.C,U8*%
D11*
X178423800Y-139576200D02*
X178423800Y-136423800D01*
X181576200Y-139576200D02*
X181576200Y-136423800D01*
X178875000Y-139979900D02*
G75*
G02*
X178725200Y-139979900I-74900J0D01*
G01*
X178725200Y-139979900D02*
G75*
G02*
X178875000Y-139979900I74900J0D01*
G01*
%TO.C,C76*%
D10*
X170171580Y-120858000D02*
X169890420Y-120858000D01*
X170171580Y-121878000D02*
X169890420Y-121878000D01*
%TO.C,J6*%
D12*
X187875000Y-118800000D02*
X187875000Y-125199800D01*
X188144000Y-125199800D02*
X187875000Y-125199800D01*
X189793900Y-118800000D02*
X187875000Y-118800000D01*
X192206000Y-118800000D02*
X192056100Y-118800000D01*
X192206000Y-118800000D02*
X196743900Y-118800000D01*
X193943600Y-125199800D02*
X190406100Y-125199800D01*
X199006100Y-118800000D02*
X199875000Y-118800000D01*
X199875000Y-118800000D02*
X199875000Y-125199800D01*
X199875000Y-125199800D02*
X196206000Y-125199800D01*
%TO.C,R32*%
D10*
X173512742Y-125352500D02*
X173987258Y-125352500D01*
X173512742Y-126397500D02*
X173987258Y-126397500D01*
%TO.C,C23*%
X149738748Y-100765000D02*
X150261252Y-100765000D01*
X149738748Y-102235000D02*
X150261252Y-102235000D01*
%TO.C,R38*%
X114762742Y-134977500D02*
X115237258Y-134977500D01*
X114762742Y-136022500D02*
X115237258Y-136022500D01*
%TO.C,C63*%
X157859420Y-129990000D02*
X158140580Y-129990000D01*
X157859420Y-131010000D02*
X158140580Y-131010000D01*
%TO.C,C33*%
X153438748Y-105465000D02*
X153961252Y-105465000D01*
X153438748Y-106935000D02*
X153961252Y-106935000D01*
%TO.C,R23*%
X140762742Y-141477500D02*
X141237258Y-141477500D01*
X140762742Y-142522500D02*
X141237258Y-142522500D01*
%TO.C,J8*%
X158620000Y-147380000D02*
X158620000Y-146000000D01*
X160000000Y-147380000D02*
X158620000Y-147380000D01*
X161270000Y-144620000D02*
X174080000Y-144620000D01*
X161270000Y-147380000D02*
X161270000Y-144620000D01*
X161270000Y-147380000D02*
X174080000Y-147380000D01*
X174080000Y-147380000D02*
X174080000Y-144620000D01*
%TO.C,C24*%
X149859420Y-103490000D02*
X150140580Y-103490000D01*
X149859420Y-104510000D02*
X150140580Y-104510000D01*
%TO.C,L1*%
X157337221Y-106990000D02*
X157662779Y-106990000D01*
X157337221Y-108010000D02*
X157662779Y-108010000D01*
%TO.C,R24*%
X138762742Y-144477500D02*
X139237258Y-144477500D01*
X138762742Y-145522500D02*
X139237258Y-145522500D01*
%TO.C,C80*%
X103359420Y-128490000D02*
X103640580Y-128490000D01*
X103359420Y-129510000D02*
X103640580Y-129510000D01*
%TO.C,Y2*%
D11*
X157221400Y-111471400D02*
X159378600Y-111471400D01*
X157221400Y-115528600D02*
X157221400Y-111471400D01*
X159378600Y-111471400D02*
X159378600Y-115528600D01*
X159378600Y-115528600D02*
X157221400Y-115528600D01*
%TO.C,R14*%
D10*
X170727500Y-115987258D02*
X170727500Y-115512742D01*
X171772500Y-115987258D02*
X171772500Y-115512742D01*
%TO.C,C57*%
X153859420Y-127990000D02*
X154140580Y-127990000D01*
X153859420Y-129010000D02*
X154140580Y-129010000D01*
%TO.C,U9*%
D13*
X178275100Y-121275100D02*
X178725000Y-121275100D01*
X178275100Y-121725000D02*
X178275100Y-121275100D01*
X178275100Y-124725000D02*
X178275100Y-124275100D01*
X178725000Y-124725000D02*
X178275100Y-124725000D01*
X181275100Y-121275100D02*
X181725000Y-121275100D01*
X181275100Y-124725000D02*
X181725000Y-124725000D01*
X181725000Y-121275100D02*
X181725000Y-121725000D01*
X181725000Y-124725000D02*
X181725000Y-124275100D01*
D14*
X177924900Y-121476100D02*
G75*
G02*
X177924900Y-121478600I37490J-1250D01*
G01*
%TO.C,SW3*%
D10*
X147550000Y-146300000D02*
X147550000Y-147100000D01*
X149400000Y-145200000D02*
X151100000Y-145200000D01*
X152400000Y-145200000D02*
X152600000Y-145200000D01*
X154450000Y-146300000D02*
X154450000Y-147100000D01*
%TO.C,C78*%
X173288748Y-140090000D02*
X174711252Y-140090000D01*
X173288748Y-141910000D02*
X174711252Y-141910000D01*
%TO.C,U6*%
D11*
X110110800Y-135460800D02*
X111889200Y-135460800D01*
X110110800Y-138539200D02*
X111889200Y-138539200D01*
D14*
X109848600Y-135331700D02*
G75*
G02*
X109548400Y-135331700I-150100J0D01*
G01*
X109548400Y-135331700D02*
G75*
G02*
X109848600Y-135331700I150100J0D01*
G01*
%TO.C,U5*%
D13*
X140900000Y-135400000D02*
X141070000Y-135400000D01*
X140900000Y-135900000D02*
X140900000Y-135400000D01*
X140900000Y-138100000D02*
X140900000Y-138600000D01*
X140900000Y-138600000D02*
X141070000Y-138600000D01*
X144930000Y-135400000D02*
X145100000Y-135400000D01*
X145100000Y-135400000D02*
X145100000Y-135900000D01*
X145100000Y-138100000D02*
X145100000Y-138600000D01*
X145100000Y-138600000D02*
X144930000Y-138600000D01*
D12*
X144950700Y-135023900D02*
G75*
G02*
X144948200Y-135023900I-1250J-31238D01*
G01*
%TO.C,C61*%
D10*
X169972420Y-129872000D02*
X170253580Y-129872000D01*
X169972420Y-130892000D02*
X170253580Y-130892000D01*
%TO.C,J4*%
X102300000Y-135300000D02*
X104300000Y-135300000D01*
X102300000Y-144700000D02*
X104300000Y-144700000D01*
X106200000Y-135300000D02*
X108100000Y-135300000D01*
X106200000Y-144700000D02*
X108100000Y-144700000D01*
X108100000Y-144700000D02*
X108100000Y-135300000D01*
%TO.C,C31*%
X153559420Y-100990000D02*
X153840580Y-100990000D01*
X153559420Y-102010000D02*
X153840580Y-102010000D01*
%TO.C,AE1*%
D12*
X194324000Y-102440000D02*
X197676000Y-102450000D01*
X195238000Y-103246000D02*
X195238000Y-103754000D01*
X195238000Y-103754000D02*
X195746000Y-103754000D01*
X195746000Y-103246000D02*
X195238000Y-103246000D01*
X195746000Y-103754000D02*
X195746000Y-103246000D01*
X197524000Y-104550000D02*
X194324100Y-104550000D01*
%TO.C,R37*%
D10*
X156512742Y-139202500D02*
X156987258Y-139202500D01*
X156512742Y-140247500D02*
X156987258Y-140247500D01*
%TO.C,J5*%
X129390000Y-144640000D02*
X131190000Y-144640000D01*
X129390000Y-146240000D02*
X129390000Y-144640000D01*
X134810000Y-144640000D02*
X134810000Y-143700000D01*
X135340000Y-149110000D02*
X130660000Y-149110000D01*
X136610000Y-144640000D02*
X134810000Y-144640000D01*
X136610000Y-146240000D02*
X136610000Y-144640000D01*
%TO.C,SW2*%
X121750000Y-146000000D02*
X121750000Y-148000000D01*
X122750000Y-144700000D02*
X123200000Y-144250000D01*
X122750000Y-149300000D02*
X123200000Y-149750000D01*
X123200000Y-144250000D02*
X125800000Y-144250000D01*
X123200000Y-149750000D02*
X125800000Y-149750000D01*
X126250000Y-144700000D02*
X125800000Y-144250000D01*
X126250000Y-149300000D02*
X125800000Y-149750000D01*
X127250000Y-146000000D02*
X127250000Y-148000000D01*
%TO.C,C59*%
X153859420Y-130490000D02*
X154140580Y-130490000D01*
X153859420Y-131510000D02*
X154140580Y-131510000D01*
%TO.C,R18*%
X123762742Y-131477500D02*
X124237258Y-131477500D01*
X123762742Y-132522500D02*
X124237258Y-132522500D01*
%TO.C,C49*%
X150765000Y-140261252D02*
X150765000Y-139738748D01*
X152235000Y-140261252D02*
X152235000Y-139738748D01*
%TO.C,R22*%
X136762742Y-141477500D02*
X137237258Y-141477500D01*
X136762742Y-142522500D02*
X137237258Y-142522500D01*
%TO.C,R25*%
X123762742Y-129477500D02*
X124237258Y-129477500D01*
X123762742Y-130522500D02*
X124237258Y-130522500D01*
%TO.C,C71*%
X161948420Y-121873000D02*
X162229580Y-121873000D01*
X161948420Y-122893000D02*
X162229580Y-122893000D01*
%TO.C,C38*%
X153559420Y-116990000D02*
X153840580Y-116990000D01*
X153559420Y-118010000D02*
X153840580Y-118010000D01*
%TO.C,R26*%
X127762742Y-129477500D02*
X128237258Y-129477500D01*
X127762742Y-130522500D02*
X128237258Y-130522500D01*
%TO.C,C46*%
X139738748Y-130765000D02*
X140261252Y-130765000D01*
X139738748Y-132235000D02*
X140261252Y-132235000D01*
%TO.C,C75*%
X170198580Y-131638000D02*
X169917420Y-131638000D01*
X170198580Y-132658000D02*
X169917420Y-132658000D01*
%TO.C,U7*%
D11*
X160673800Y-128228600D02*
X167326200Y-128228600D01*
X160673800Y-131771400D02*
X160673800Y-128228600D01*
X167326200Y-128228600D02*
X167326200Y-131771400D01*
X167326200Y-131771400D02*
X160673800Y-131771400D01*
D14*
X160590800Y-132871000D02*
G75*
G02*
X160290600Y-132871000I-150100J0D01*
G01*
X160290600Y-132871000D02*
G75*
G02*
X160590800Y-132871000I150100J0D01*
G01*
X161225000Y-131019000D02*
G75*
G02*
X160924800Y-131019000I-150100J0D01*
G01*
X160924800Y-131019000D02*
G75*
G02*
X161225000Y-131019000I150100J0D01*
G01*
%TO.C,C35*%
D10*
X172659420Y-104890000D02*
X172940580Y-104890000D01*
X172659420Y-105910000D02*
X172940580Y-105910000D01*
%TO.C,C70*%
X173890580Y-127115000D02*
X173609420Y-127115000D01*
X173890580Y-128135000D02*
X173609420Y-128135000D01*
%TO.C,C30*%
X149859420Y-116690000D02*
X150140580Y-116690000D01*
X149859420Y-117710000D02*
X150140580Y-117710000D01*
%TO.C,SW1*%
X113250000Y-146000000D02*
X113250000Y-148000000D01*
X114250000Y-144700000D02*
X114700000Y-144250000D01*
X114250000Y-149300000D02*
X114700000Y-149750000D01*
X114700000Y-144250000D02*
X117300000Y-144250000D01*
X114700000Y-149750000D02*
X117300000Y-149750000D01*
X117750000Y-144700000D02*
X117300000Y-144250000D01*
X117750000Y-149300000D02*
X117300000Y-149750000D01*
X118750000Y-146000000D02*
X118750000Y-148000000D01*
%TO.C,C25*%
X149859420Y-105690000D02*
X150140580Y-105690000D01*
X149859420Y-106710000D02*
X150140580Y-106710000D01*
%TO.C,C74*%
X157859420Y-120490000D02*
X158140580Y-120490000D01*
X157859420Y-121510000D02*
X158140580Y-121510000D01*
%TO.C,C77*%
X178140580Y-143490000D02*
X177859420Y-143490000D01*
X178140580Y-144510000D02*
X177859420Y-144510000D01*
%TO.C,D1*%
D11*
X106257400Y-128593700D02*
X106409800Y-128441300D01*
X106257400Y-129407600D02*
X106257400Y-128593700D01*
X106409800Y-128441300D02*
X106989900Y-128440000D01*
X106409800Y-129560000D02*
X106257400Y-129407600D01*
X106989900Y-129570000D02*
X106409800Y-129560000D01*
X107232200Y-128440600D02*
X107735400Y-128440600D01*
X107735400Y-128440600D02*
X107735400Y-129559400D01*
X107735400Y-129559400D02*
X107232200Y-129559400D01*
D15*
G36*
X106105000Y-129407600D02*
G01*
X105952600Y-129407600D01*
X105952600Y-128593700D01*
X106105000Y-128593700D01*
X106105000Y-129407600D01*
G37*
%TO.C,C37*%
D10*
X155440580Y-114145000D02*
X155159420Y-114145000D01*
X155440580Y-115165000D02*
X155159420Y-115165000D01*
%TO.C,J7*%
D12*
X187875000Y-133800000D02*
X187875000Y-140199800D01*
X188144000Y-140199800D02*
X187875000Y-140199800D01*
X189793900Y-133800000D02*
X187875000Y-133800000D01*
X192206000Y-133800000D02*
X192056100Y-133800000D01*
X192206000Y-133800000D02*
X196743900Y-133800000D01*
X193943600Y-140199800D02*
X190406100Y-140199800D01*
X199006100Y-133800000D02*
X199875000Y-133800000D01*
X199875000Y-133800000D02*
X199875000Y-140199800D01*
X199875000Y-140199800D02*
X196206000Y-140199800D01*
%TO.C,R29*%
D10*
X161737258Y-135977500D02*
X161262742Y-135977500D01*
X161737258Y-137022500D02*
X161262742Y-137022500D01*
%TO.C,R17*%
X110262742Y-130977500D02*
X110737258Y-130977500D01*
X110262742Y-132022500D02*
X110737258Y-132022500D01*
%TO.C,R20*%
X131477500Y-134237258D02*
X131477500Y-133762742D01*
X132522500Y-134237258D02*
X132522500Y-133762742D01*
%TO.C,C39*%
X147738748Y-118765000D02*
X148261252Y-118765000D01*
X147738748Y-120235000D02*
X148261252Y-120235000D01*
%TO.C,D2*%
D11*
X109757400Y-128593700D02*
X109909800Y-128441300D01*
X109757400Y-129407600D02*
X109757400Y-128593700D01*
X109909800Y-128441300D02*
X110489900Y-128440000D01*
X109909800Y-129560000D02*
X109757400Y-129407600D01*
X110489900Y-129570000D02*
X109909800Y-129560000D01*
X110732200Y-128440600D02*
X111235400Y-128440600D01*
X111235400Y-128440600D02*
X111235400Y-129559400D01*
X111235400Y-129559400D02*
X110732200Y-129559400D01*
D15*
G36*
X109605000Y-129407600D02*
G01*
X109452600Y-129407600D01*
X109452600Y-128593700D01*
X109605000Y-128593700D01*
X109605000Y-129407600D01*
G37*
%TO.C,C66*%
D10*
X170059420Y-124443000D02*
X170340580Y-124443000D01*
X170059420Y-125463000D02*
X170340580Y-125463000D01*
%TO.C,U3*%
D12*
X171900000Y-108443300D02*
X171900000Y-107740000D01*
X171900000Y-111940000D02*
X171900000Y-111206300D01*
X172633700Y-107740000D02*
X171900000Y-107740000D01*
X172633700Y-111940000D02*
X171900000Y-111940000D01*
X176100000Y-107740000D02*
X175396700Y-107740000D01*
X176100000Y-108448300D02*
X176100000Y-107740000D01*
X176100000Y-111940000D02*
X175396700Y-111940000D01*
X176100000Y-111940000D02*
X176100000Y-111211300D01*
D14*
X176489200Y-111643400D02*
G75*
G02*
X176489200Y-111640900I-37490J1250D01*
G01*
%TO.C,R28*%
D10*
X177977500Y-115737258D02*
X177977500Y-115262742D01*
X179022500Y-115737258D02*
X179022500Y-115262742D01*
%TO.C,R31*%
X177410742Y-127145500D02*
X177885258Y-127145500D01*
X177410742Y-128190500D02*
X177885258Y-128190500D01*
%TO.C,C36*%
X155440580Y-111835000D02*
X155159420Y-111835000D01*
X155440580Y-112855000D02*
X155159420Y-112855000D01*
%TO.C,C73*%
X157859420Y-136490000D02*
X158140580Y-136490000D01*
X157859420Y-137510000D02*
X158140580Y-137510000D01*
%TO.C,C69*%
X184109420Y-119490000D02*
X184390580Y-119490000D01*
X184109420Y-120510000D02*
X184390580Y-120510000D01*
%TO.C,R30*%
X159477500Y-140237258D02*
X159477500Y-139762742D01*
X160522500Y-140237258D02*
X160522500Y-139762742D01*
%TO.C,C67*%
X174859420Y-120490000D02*
X175140580Y-120490000D01*
X174859420Y-121510000D02*
X175140580Y-121510000D01*
%TO.C,C50*%
X141738748Y-146265000D02*
X142261252Y-146265000D01*
X141738748Y-147735000D02*
X142261252Y-147735000D01*
%TO.C,C26*%
X149859420Y-107890000D02*
X150140580Y-107890000D01*
X149859420Y-108910000D02*
X150140580Y-108910000D01*
%TO.C,C58*%
X153738748Y-132765000D02*
X154261252Y-132765000D01*
X153738748Y-134235000D02*
X154261252Y-134235000D01*
%TO.C,C47*%
X145490000Y-131640580D02*
X145490000Y-131359420D01*
X146510000Y-131640580D02*
X146510000Y-131359420D01*
%TO.C,C45*%
X135738748Y-130765000D02*
X136261252Y-130765000D01*
X135738748Y-132235000D02*
X136261252Y-132235000D01*
%TO.C,C79*%
X173859420Y-136990000D02*
X174140580Y-136990000D01*
X173859420Y-138010000D02*
X174140580Y-138010000D01*
%TO.C,R33*%
X174762742Y-123477500D02*
X175237258Y-123477500D01*
X174762742Y-124522500D02*
X175237258Y-124522500D01*
%TO.C,R16*%
X106762742Y-130977500D02*
X107237258Y-130977500D01*
X106762742Y-132022500D02*
X107237258Y-132022500D01*
%TO.C,C56*%
X153738748Y-135765000D02*
X154261252Y-135765000D01*
X153738748Y-137235000D02*
X154261252Y-137235000D01*
%TO.C,C72*%
X172859420Y-118490000D02*
X173140580Y-118490000D01*
X172859420Y-119510000D02*
X173140580Y-119510000D01*
%TO.C,C28*%
X149859420Y-112290000D02*
X150140580Y-112290000D01*
X149859420Y-113310000D02*
X150140580Y-113310000D01*
%TO.C,C64*%
X157859420Y-132990000D02*
X158140580Y-132990000D01*
X157859420Y-134010000D02*
X158140580Y-134010000D01*
%TO.C,R13*%
X168727500Y-115987258D02*
X168727500Y-115512742D01*
X169772500Y-115987258D02*
X169772500Y-115512742D01*
%TO.C,R15*%
X172727500Y-115987258D02*
X172727500Y-115512742D01*
X173772500Y-115987258D02*
X173772500Y-115512742D01*
%TO.C,J3*%
X186095000Y-147270000D02*
X186095000Y-146635000D01*
X186730000Y-147270000D02*
X186095000Y-147270000D01*
%TO.C,R42*%
X103262742Y-130977500D02*
X103737258Y-130977500D01*
X103262742Y-132022500D02*
X103737258Y-132022500D01*
%TO.C,R36*%
X185262742Y-126227500D02*
X185737258Y-126227500D01*
X185262742Y-127272500D02*
X185737258Y-127272500D01*
%TO.C,U2*%
D11*
X160450000Y-106950000D02*
X160450000Y-114050000D01*
X160450000Y-114050000D02*
X167550000Y-114050000D01*
X160450100Y-107500000D02*
X160450100Y-107509100D01*
X160950000Y-106999900D02*
X160450100Y-107500000D01*
X167550000Y-106950000D02*
X160450000Y-106950000D01*
X167550000Y-114050000D02*
X167550000Y-106950000D01*
D13*
X160250000Y-107150000D02*
G75*
G02*
X160049800Y-107150000I-100100J0D01*
G01*
X160049800Y-107150000D02*
G75*
G02*
X160250000Y-107150000I100100J0D01*
G01*
D10*
X160812600Y-107749900D02*
G75*
G02*
X160687600Y-107749900I-62500J0D01*
G01*
X160687600Y-107749900D02*
G75*
G02*
X160812600Y-107749900I62500J0D01*
G01*
X160812600Y-108250100D02*
G75*
G02*
X160687600Y-108250100I-62500J0D01*
G01*
X160687600Y-108250100D02*
G75*
G02*
X160812600Y-108250100I62500J0D01*
G01*
X160812600Y-109250100D02*
G75*
G02*
X160687600Y-109250100I-62500J0D01*
G01*
X160687600Y-109250100D02*
G75*
G02*
X160812600Y-109250100I62500J0D01*
G01*
X160812600Y-109749900D02*
G75*
G02*
X160687600Y-109749900I-62500J0D01*
G01*
X160687600Y-109749900D02*
G75*
G02*
X160812600Y-109749900I62500J0D01*
G01*
X160812600Y-110250100D02*
G75*
G02*
X160687600Y-110250100I-62500J0D01*
G01*
X160687600Y-110250100D02*
G75*
G02*
X160812600Y-110250100I62500J0D01*
G01*
X160812600Y-110749900D02*
G75*
G02*
X160687600Y-110749900I-62500J0D01*
G01*
X160687600Y-110749900D02*
G75*
G02*
X160812600Y-110749900I62500J0D01*
G01*
X160812600Y-111250100D02*
G75*
G02*
X160687600Y-111250100I-62500J0D01*
G01*
X160687600Y-111250100D02*
G75*
G02*
X160812600Y-111250100I62500J0D01*
G01*
X160812600Y-111749900D02*
G75*
G02*
X160687600Y-111749900I-62500J0D01*
G01*
X160687600Y-111749900D02*
G75*
G02*
X160812600Y-111749900I62500J0D01*
G01*
X160812600Y-112250100D02*
G75*
G02*
X160687600Y-112250100I-62500J0D01*
G01*
X160687600Y-112250100D02*
G75*
G02*
X160812600Y-112250100I62500J0D01*
G01*
X161312400Y-108500000D02*
G75*
G02*
X161187400Y-108500000I-62500J0D01*
G01*
X161187400Y-108500000D02*
G75*
G02*
X161312400Y-108500000I62500J0D01*
G01*
X161312400Y-109000100D02*
G75*
G02*
X161187400Y-109000100I-62500J0D01*
G01*
X161187400Y-109000100D02*
G75*
G02*
X161312400Y-109000100I62500J0D01*
G01*
X161312400Y-109500000D02*
G75*
G02*
X161187400Y-109500000I-62500J0D01*
G01*
X161187400Y-109500000D02*
G75*
G02*
X161312400Y-109500000I62500J0D01*
G01*
X161312400Y-110000100D02*
G75*
G02*
X161187400Y-110000100I-62500J0D01*
G01*
X161187400Y-110000100D02*
G75*
G02*
X161312400Y-110000100I62500J0D01*
G01*
X161312400Y-110500000D02*
G75*
G02*
X161187400Y-110500000I-62500J0D01*
G01*
X161187400Y-110500000D02*
G75*
G02*
X161312400Y-110500000I62500J0D01*
G01*
X161312400Y-111000100D02*
G75*
G02*
X161187400Y-111000100I-62500J0D01*
G01*
X161187400Y-111000100D02*
G75*
G02*
X161312400Y-111000100I62500J0D01*
G01*
X161312400Y-111500000D02*
G75*
G02*
X161187400Y-111500000I-62500J0D01*
G01*
X161187400Y-111500000D02*
G75*
G02*
X161312400Y-111500000I62500J0D01*
G01*
X161312400Y-112500000D02*
G75*
G02*
X161187400Y-112500000I-62500J0D01*
G01*
X161187400Y-112500000D02*
G75*
G02*
X161312400Y-112500000I62500J0D01*
G01*
X161312400Y-113000100D02*
G75*
G02*
X161187400Y-113000100I-62500J0D01*
G01*
X161187400Y-113000100D02*
G75*
G02*
X161312400Y-113000100I62500J0D01*
G01*
X161312400Y-113749900D02*
G75*
G02*
X161187400Y-113749900I-62500J0D01*
G01*
X161187400Y-113749900D02*
G75*
G02*
X161312400Y-113749900I62500J0D01*
G01*
X161562600Y-107749900D02*
G75*
G02*
X161437600Y-107749900I-62500J0D01*
G01*
X161437600Y-107749900D02*
G75*
G02*
X161562600Y-107749900I62500J0D01*
G01*
X161812600Y-113749900D02*
G75*
G02*
X161687600Y-113749900I-62500J0D01*
G01*
X161687600Y-113749900D02*
G75*
G02*
X161812600Y-113749900I62500J0D01*
G01*
X162062500Y-107749900D02*
G75*
G02*
X161937500Y-107749900I-62500J0D01*
G01*
X161937500Y-107749900D02*
G75*
G02*
X162062500Y-107749900I62500J0D01*
G01*
X162062500Y-113250100D02*
G75*
G02*
X161937500Y-113250100I-62500J0D01*
G01*
X161937500Y-113250100D02*
G75*
G02*
X162062500Y-113250100I62500J0D01*
G01*
X162312400Y-113749900D02*
G75*
G02*
X162187400Y-113749900I-62500J0D01*
G01*
X162187400Y-113749900D02*
G75*
G02*
X162312400Y-113749900I62500J0D01*
G01*
X162562600Y-107749900D02*
G75*
G02*
X162437600Y-107749900I-62500J0D01*
G01*
X162437600Y-107749900D02*
G75*
G02*
X162562600Y-107749900I62500J0D01*
G01*
X162812600Y-107250100D02*
G75*
G02*
X162687600Y-107250100I-62500J0D01*
G01*
X162687600Y-107250100D02*
G75*
G02*
X162812600Y-107250100I62500J0D01*
G01*
X162812600Y-113749900D02*
G75*
G02*
X162687600Y-113749900I-62500J0D01*
G01*
X162687600Y-113749900D02*
G75*
G02*
X162812600Y-113749900I62500J0D01*
G01*
X163062500Y-107749900D02*
G75*
G02*
X162937500Y-107749900I-62500J0D01*
G01*
X162937500Y-107749900D02*
G75*
G02*
X163062500Y-107749900I62500J0D01*
G01*
X163062500Y-113250100D02*
G75*
G02*
X162937500Y-113250100I-62500J0D01*
G01*
X162937500Y-113250100D02*
G75*
G02*
X163062500Y-113250100I62500J0D01*
G01*
X163312400Y-107250100D02*
G75*
G02*
X163187400Y-107250100I-62500J0D01*
G01*
X163187400Y-107250100D02*
G75*
G02*
X163312400Y-107250100I62500J0D01*
G01*
X163312400Y-113749900D02*
G75*
G02*
X163187400Y-113749900I-62500J0D01*
G01*
X163187400Y-113749900D02*
G75*
G02*
X163312400Y-113749900I62500J0D01*
G01*
X163562600Y-107749900D02*
G75*
G02*
X163437600Y-107749900I-62500J0D01*
G01*
X163437600Y-107749900D02*
G75*
G02*
X163562600Y-107749900I62500J0D01*
G01*
X163562600Y-113250100D02*
G75*
G02*
X163437600Y-113250100I-62500J0D01*
G01*
X163437600Y-113250100D02*
G75*
G02*
X163562600Y-113250100I62500J0D01*
G01*
X163812600Y-107250100D02*
G75*
G02*
X163687600Y-107250100I-62500J0D01*
G01*
X163687600Y-107250100D02*
G75*
G02*
X163812600Y-107250100I62500J0D01*
G01*
X163812600Y-113749900D02*
G75*
G02*
X163687600Y-113749900I-62500J0D01*
G01*
X163687600Y-113749900D02*
G75*
G02*
X163812600Y-113749900I62500J0D01*
G01*
X164062500Y-107749900D02*
G75*
G02*
X163937500Y-107749900I-62500J0D01*
G01*
X163937500Y-107749900D02*
G75*
G02*
X164062500Y-107749900I62500J0D01*
G01*
X164062500Y-113250100D02*
G75*
G02*
X163937500Y-113250100I-62500J0D01*
G01*
X163937500Y-113250100D02*
G75*
G02*
X164062500Y-113250100I62500J0D01*
G01*
X164312400Y-107250100D02*
G75*
G02*
X164187400Y-107250100I-62500J0D01*
G01*
X164187400Y-107250100D02*
G75*
G02*
X164312400Y-107250100I62500J0D01*
G01*
X164312400Y-113749900D02*
G75*
G02*
X164187400Y-113749900I-62500J0D01*
G01*
X164187400Y-113749900D02*
G75*
G02*
X164312400Y-113749900I62500J0D01*
G01*
X164562600Y-107749900D02*
G75*
G02*
X164437600Y-107749900I-62500J0D01*
G01*
X164437600Y-107749900D02*
G75*
G02*
X164562600Y-107749900I62500J0D01*
G01*
X164562600Y-113250100D02*
G75*
G02*
X164437600Y-113250100I-62500J0D01*
G01*
X164437600Y-113250100D02*
G75*
G02*
X164562600Y-113250100I62500J0D01*
G01*
X164812600Y-107250100D02*
G75*
G02*
X164687600Y-107250100I-62500J0D01*
G01*
X164687600Y-107250100D02*
G75*
G02*
X164812600Y-107250100I62500J0D01*
G01*
X164812600Y-113749900D02*
G75*
G02*
X164687600Y-113749900I-62500J0D01*
G01*
X164687600Y-113749900D02*
G75*
G02*
X164812600Y-113749900I62500J0D01*
G01*
X165062500Y-107749900D02*
G75*
G02*
X164937500Y-107749900I-62500J0D01*
G01*
X164937500Y-107749900D02*
G75*
G02*
X165062500Y-107749900I62500J0D01*
G01*
X165062500Y-113250100D02*
G75*
G02*
X164937500Y-113250100I-62500J0D01*
G01*
X164937500Y-113250100D02*
G75*
G02*
X165062500Y-113250100I62500J0D01*
G01*
X165312400Y-107250100D02*
G75*
G02*
X165187400Y-107250100I-62500J0D01*
G01*
X165187400Y-107250100D02*
G75*
G02*
X165312400Y-107250100I62500J0D01*
G01*
X165312400Y-113749900D02*
G75*
G02*
X165187400Y-113749900I-62500J0D01*
G01*
X165187400Y-113749900D02*
G75*
G02*
X165312400Y-113749900I62500J0D01*
G01*
X165562600Y-107749900D02*
G75*
G02*
X165437600Y-107749900I-62500J0D01*
G01*
X165437600Y-107749900D02*
G75*
G02*
X165562600Y-107749900I62500J0D01*
G01*
X165562600Y-113250100D02*
G75*
G02*
X165437600Y-113250100I-62500J0D01*
G01*
X165437600Y-113250100D02*
G75*
G02*
X165562600Y-113250100I62500J0D01*
G01*
X165812600Y-107250100D02*
G75*
G02*
X165687600Y-107250100I-62500J0D01*
G01*
X165687600Y-107250100D02*
G75*
G02*
X165812600Y-107250100I62500J0D01*
G01*
X165812600Y-113749900D02*
G75*
G02*
X165687600Y-113749900I-62500J0D01*
G01*
X165687600Y-113749900D02*
G75*
G02*
X165812600Y-113749900I62500J0D01*
G01*
X166062500Y-113250100D02*
G75*
G02*
X165937500Y-113250100I-62500J0D01*
G01*
X165937500Y-113250100D02*
G75*
G02*
X166062500Y-113250100I62500J0D01*
G01*
X166312400Y-107250100D02*
G75*
G02*
X166187400Y-107250100I-62500J0D01*
G01*
X166187400Y-107250100D02*
G75*
G02*
X166312400Y-107250100I62500J0D01*
G01*
X166312400Y-113749900D02*
G75*
G02*
X166187400Y-113749900I-62500J0D01*
G01*
X166187400Y-113749900D02*
G75*
G02*
X166312400Y-113749900I62500J0D01*
G01*
X166812600Y-107250100D02*
G75*
G02*
X166687600Y-107250100I-62500J0D01*
G01*
X166687600Y-107250100D02*
G75*
G02*
X166812600Y-107250100I62500J0D01*
G01*
X166812600Y-108500000D02*
G75*
G02*
X166687600Y-108500000I-62500J0D01*
G01*
X166687600Y-108500000D02*
G75*
G02*
X166812600Y-108500000I62500J0D01*
G01*
X166812600Y-109000100D02*
G75*
G02*
X166687600Y-109000100I-62500J0D01*
G01*
X166687600Y-109000100D02*
G75*
G02*
X166812600Y-109000100I62500J0D01*
G01*
X166812600Y-109500000D02*
G75*
G02*
X166687600Y-109500000I-62500J0D01*
G01*
X166687600Y-109500000D02*
G75*
G02*
X166812600Y-109500000I62500J0D01*
G01*
X166812600Y-110999900D02*
G75*
G02*
X166687600Y-110999900I-62500J0D01*
G01*
X166687600Y-110999900D02*
G75*
G02*
X166812600Y-110999900I62500J0D01*
G01*
X166812600Y-111500000D02*
G75*
G02*
X166687600Y-111500000I-62500J0D01*
G01*
X166687600Y-111500000D02*
G75*
G02*
X166812600Y-111500000I62500J0D01*
G01*
X166812600Y-111999900D02*
G75*
G02*
X166687600Y-111999900I-62500J0D01*
G01*
X166687600Y-111999900D02*
G75*
G02*
X166812600Y-111999900I62500J0D01*
G01*
X166812600Y-112500000D02*
G75*
G02*
X166687600Y-112500000I-62500J0D01*
G01*
X166687600Y-112500000D02*
G75*
G02*
X166812600Y-112500000I62500J0D01*
G01*
X166812600Y-113749900D02*
G75*
G02*
X166687600Y-113749900I-62500J0D01*
G01*
X166687600Y-113749900D02*
G75*
G02*
X166812600Y-113749900I62500J0D01*
G01*
X167312400Y-107749900D02*
G75*
G02*
X167187400Y-107749900I-62500J0D01*
G01*
X167187400Y-107749900D02*
G75*
G02*
X167312400Y-107749900I62500J0D01*
G01*
X167312400Y-108749900D02*
G75*
G02*
X167187400Y-108749900I-62500J0D01*
G01*
X167187400Y-108749900D02*
G75*
G02*
X167312400Y-108749900I62500J0D01*
G01*
X167312400Y-109749900D02*
G75*
G02*
X167187400Y-109749900I-62500J0D01*
G01*
X167187400Y-109749900D02*
G75*
G02*
X167312400Y-109749900I62500J0D01*
G01*
X167312400Y-110250100D02*
G75*
G02*
X167187400Y-110250100I-62500J0D01*
G01*
X167187400Y-110250100D02*
G75*
G02*
X167312400Y-110250100I62500J0D01*
G01*
X167312400Y-110749900D02*
G75*
G02*
X167187400Y-110749900I-62500J0D01*
G01*
X167187400Y-110749900D02*
G75*
G02*
X167312400Y-110749900I62500J0D01*
G01*
X167312400Y-111250100D02*
G75*
G02*
X167187400Y-111250100I-62500J0D01*
G01*
X167187400Y-111250100D02*
G75*
G02*
X167312400Y-111250100I62500J0D01*
G01*
X167312400Y-111749900D02*
G75*
G02*
X167187400Y-111749900I-62500J0D01*
G01*
X167187400Y-111749900D02*
G75*
G02*
X167312400Y-111749900I62500J0D01*
G01*
X167312400Y-112250100D02*
G75*
G02*
X167187400Y-112250100I-62500J0D01*
G01*
X167187400Y-112250100D02*
G75*
G02*
X167312400Y-112250100I62500J0D01*
G01*
X167312400Y-112749900D02*
G75*
G02*
X167187400Y-112749900I-62500J0D01*
G01*
X167187400Y-112749900D02*
G75*
G02*
X167312400Y-112749900I62500J0D01*
G01*
X167312400Y-113250100D02*
G75*
G02*
X167187400Y-113250100I-62500J0D01*
G01*
X167187400Y-113250100D02*
G75*
G02*
X167312400Y-113250100I62500J0D01*
G01*
D15*
G36*
X160450000Y-107500000D02*
G01*
X160450000Y-106950000D01*
X161000000Y-106950000D01*
X160450000Y-107500000D01*
G37*
%TO.C,C42*%
D10*
X120859420Y-134490000D02*
X121140580Y-134490000D01*
X120859420Y-135510000D02*
X121140580Y-135510000D01*
%TD*%
%LPC*%
D16*
%TO.C,C55*%
X153225000Y-121000000D03*
X154775000Y-121000000D03*
%TD*%
D17*
%TO.C,R41*%
X147000000Y-141325000D03*
X147000000Y-139675000D03*
%TD*%
D18*
%TO.C,U1*%
X113250000Y-108740000D03*
X113250000Y-110010000D03*
X113250000Y-111280000D03*
X113250000Y-112550000D03*
X113250000Y-113820000D03*
X113250000Y-115090000D03*
X113250000Y-116360000D03*
X113250000Y-117630000D03*
X113250000Y-118900000D03*
X113250000Y-120170000D03*
X113250000Y-121440000D03*
X113250000Y-122710000D03*
X113250000Y-123980000D03*
X113250000Y-125250000D03*
D19*
X115015000Y-126500000D03*
X116285000Y-126500000D03*
X117555000Y-126500000D03*
X118825000Y-126500000D03*
X120095000Y-126500000D03*
X121365000Y-126500000D03*
X122635000Y-126500000D03*
X123905000Y-126500000D03*
X125175000Y-126500000D03*
X126445000Y-126500000D03*
X127715000Y-126500000D03*
X128985000Y-126500000D03*
D18*
X130750000Y-125250000D03*
X130750000Y-123980000D03*
X130750000Y-122710000D03*
X130750000Y-121440000D03*
X130750000Y-120170000D03*
X130750000Y-118900000D03*
X130750000Y-117630000D03*
X130750000Y-116360000D03*
X130750000Y-115090000D03*
X130750000Y-113820000D03*
X130750000Y-112550000D03*
X130750000Y-111280000D03*
X130750000Y-110010000D03*
X130750000Y-108740000D03*
D20*
X119100000Y-115760000D03*
X119100000Y-117160000D03*
X119800000Y-115060000D03*
X119800000Y-116460000D03*
X119800000Y-117860000D03*
X120500000Y-115760000D03*
D21*
X120500000Y-116460000D03*
D20*
X120500000Y-117160000D03*
X121200000Y-115060000D03*
X121200000Y-116460000D03*
X121200000Y-117860000D03*
X121900000Y-115760000D03*
X121900000Y-117160000D03*
%TD*%
D22*
%TO.C,Y1*%
X176100100Y-101350000D03*
X173899900Y-101350000D03*
X173899900Y-103050000D03*
X176100100Y-103050000D03*
%TD*%
D23*
%TO.C,C60*%
X153050000Y-123500000D03*
X154950000Y-123500000D03*
%TD*%
D16*
%TO.C,C34*%
X175325000Y-105400000D03*
X176875000Y-105400000D03*
%TD*%
D24*
%TO.C,D3*%
X110000000Y-143650000D03*
X110000000Y-140350000D03*
%TD*%
D25*
%TO.C,R40*%
X123175000Y-142000000D03*
X124825000Y-142000000D03*
%TD*%
D26*
%TO.C,R35*%
X173325000Y-134000000D03*
X171675000Y-134000000D03*
%TD*%
D16*
%TO.C,C32*%
X152925000Y-103800000D03*
X154475000Y-103800000D03*
%TD*%
D27*
%TO.C,C44*%
X130000000Y-137950000D03*
X130000000Y-136050000D03*
%TD*%
D25*
%TO.C,R39*%
X114175000Y-138000000D03*
X115825000Y-138000000D03*
%TD*%
D28*
%TO.C,U4*%
X124500000Y-136249800D03*
X124500000Y-136749900D03*
X124500000Y-137249800D03*
X124500000Y-137749900D03*
D29*
X125250100Y-138500000D03*
X125750200Y-138500000D03*
X126250100Y-138500000D03*
X126750200Y-138500000D03*
D28*
X127500000Y-137749900D03*
X127500000Y-137249800D03*
X127500000Y-136749900D03*
X127500000Y-136249800D03*
D29*
X126750200Y-135500000D03*
X126250100Y-135500000D03*
X125750200Y-135500000D03*
X125250100Y-135500000D03*
D30*
X126000100Y-136999900D03*
%TD*%
D16*
%TO.C,C65*%
X153225000Y-126000000D03*
X154775000Y-126000000D03*
%TD*%
D23*
%TO.C,C43*%
X120050000Y-139000000D03*
X121950000Y-139000000D03*
%TD*%
D25*
%TO.C,R19*%
X127175000Y-132000000D03*
X128825000Y-132000000D03*
%TD*%
D31*
%TO.C,L2*%
X137700000Y-138199900D03*
X137700000Y-135800100D03*
%TD*%
D16*
%TO.C,C51*%
X131225000Y-130000000D03*
X132775000Y-130000000D03*
%TD*%
D32*
%TO.C,C62*%
X159922000Y-124862000D03*
X158372000Y-124862000D03*
%TD*%
D26*
%TO.C,R34*%
X176825000Y-134000000D03*
X175175000Y-134000000D03*
%TD*%
D33*
%TO.C,C52*%
X168880000Y-109500000D03*
X169520000Y-109500000D03*
%TD*%
D17*
%TO.C,R21*%
X132000000Y-138825000D03*
X132000000Y-137175000D03*
%TD*%
D27*
%TO.C,C48*%
X149000000Y-134950000D03*
X149000000Y-133050000D03*
%TD*%
D32*
%TO.C,C68*%
X170952000Y-128603000D03*
X169402000Y-128603000D03*
%TD*%
D16*
%TO.C,C27*%
X149225000Y-110600000D03*
X150775000Y-110600000D03*
%TD*%
D34*
%TO.C,U8*%
X178800100Y-139427500D03*
X179199900Y-139427500D03*
X179600000Y-139427500D03*
X180000000Y-139427500D03*
X180400000Y-139427500D03*
X180800100Y-139427500D03*
X181199900Y-139427500D03*
X181199900Y-136572500D03*
X180800100Y-136572500D03*
X180400000Y-136572500D03*
X180000000Y-136572500D03*
X179600000Y-136572500D03*
X179199900Y-136572500D03*
X178800100Y-136572500D03*
D35*
X180000000Y-138000000D03*
%TD*%
D32*
%TO.C,C76*%
X170806000Y-121368000D03*
X169256000Y-121368000D03*
%TD*%
D36*
%TO.C,J6*%
X197375100Y-122000000D03*
X191374800Y-122000000D03*
D37*
X197824900Y-118600000D03*
X190925000Y-118600000D03*
D38*
X195074900Y-125399800D03*
D39*
X189275000Y-125400000D03*
%TD*%
D25*
%TO.C,R32*%
X172925000Y-125875000D03*
X174575000Y-125875000D03*
%TD*%
D23*
%TO.C,C23*%
X149050000Y-101500000D03*
X150950000Y-101500000D03*
%TD*%
D25*
%TO.C,R38*%
X114175000Y-135500000D03*
X115825000Y-135500000D03*
%TD*%
D40*
%TO.C,C41*%
X192500000Y-103820000D03*
X192500000Y-103180000D03*
%TD*%
D16*
%TO.C,C63*%
X157225000Y-130500000D03*
X158775000Y-130500000D03*
%TD*%
D23*
%TO.C,C33*%
X152750000Y-106200000D03*
X154650000Y-106200000D03*
%TD*%
D25*
%TO.C,R23*%
X140175000Y-142000000D03*
X141825000Y-142000000D03*
%TD*%
D41*
%TO.C,J8*%
X160000000Y-146000000D03*
D42*
X162540000Y-146000000D03*
X165080000Y-146000000D03*
X167620000Y-146000000D03*
X170160000Y-146000000D03*
X172700000Y-146000000D03*
%TD*%
D16*
%TO.C,C24*%
X149225000Y-104000000D03*
X150775000Y-104000000D03*
%TD*%
D43*
%TO.C,L1*%
X156712500Y-107500000D03*
X158287500Y-107500000D03*
%TD*%
D33*
%TO.C,R12*%
X190180000Y-103500000D03*
X190820000Y-103500000D03*
%TD*%
D25*
%TO.C,R24*%
X138175000Y-145000000D03*
X139825000Y-145000000D03*
%TD*%
D16*
%TO.C,C80*%
X102725000Y-129000000D03*
X104275000Y-129000000D03*
%TD*%
D44*
%TO.C,Y2*%
X158300000Y-112345000D03*
X158300000Y-114655000D03*
%TD*%
D17*
%TO.C,R14*%
X171250000Y-116575000D03*
X171250000Y-114925000D03*
%TD*%
D16*
%TO.C,C57*%
X153225000Y-128500000D03*
X154775000Y-128500000D03*
%TD*%
D45*
%TO.C,U9*%
X178500000Y-122250800D03*
X178500000Y-122751200D03*
X178500000Y-123249000D03*
X178500000Y-123749400D03*
D46*
X179250800Y-124500000D03*
X179751200Y-124500000D03*
X180249000Y-124500000D03*
X180749400Y-124500000D03*
D45*
X181500000Y-123749400D03*
X181500000Y-123249000D03*
X181500000Y-122751200D03*
X181500000Y-122250800D03*
D46*
X180749400Y-121500000D03*
X180249000Y-121500000D03*
X179751200Y-121500000D03*
X179250800Y-121500000D03*
D47*
X180000100Y-123000100D03*
%TD*%
D48*
%TO.C,SW3*%
X149500000Y-146700000D03*
X152500000Y-146700000D03*
D49*
X148750000Y-144750000D03*
X151750000Y-144750000D03*
X153250000Y-144750000D03*
D50*
X147325000Y-145600000D03*
X147325000Y-147800000D03*
X154675000Y-145600000D03*
X154675000Y-147800000D03*
%TD*%
D51*
%TO.C,C78*%
X172525000Y-141000000D03*
X175475000Y-141000000D03*
%TD*%
D52*
%TO.C,U6*%
X109850900Y-136050000D03*
X109850900Y-137000000D03*
X109850900Y-137950000D03*
X112149100Y-137950000D03*
X112149100Y-137000000D03*
X112149100Y-136050000D03*
%TD*%
D53*
%TO.C,U5*%
X144500100Y-135549900D03*
X144000000Y-135549900D03*
X143499900Y-135549900D03*
X143000000Y-135549900D03*
X142499900Y-135549900D03*
X142000000Y-135549900D03*
X141499900Y-135549900D03*
X141499900Y-138450100D03*
X142000000Y-138450100D03*
D54*
X142499900Y-138450100D03*
X143000000Y-138450100D03*
X143499900Y-138450100D03*
X144000000Y-138450100D03*
X144500100Y-138450100D03*
D55*
X143000000Y-137000000D03*
%TD*%
D16*
%TO.C,C61*%
X169338000Y-130382000D03*
X170888000Y-130382000D03*
%TD*%
D56*
%TO.C,J4*%
X101600000Y-142890000D03*
X101600000Y-137110000D03*
D57*
X100155000Y-143250000D03*
X100155000Y-142450000D03*
D58*
X100155000Y-141250000D03*
X100155000Y-140250000D03*
X100155000Y-139750000D03*
X100155000Y-138750000D03*
D57*
X100155000Y-137550000D03*
X100155000Y-136750000D03*
X100155000Y-136750000D03*
X100155000Y-137550000D03*
D58*
X100155000Y-138250000D03*
X100155000Y-139250000D03*
X100155000Y-140750000D03*
X100155000Y-141750000D03*
D57*
X100155000Y-142450000D03*
X100155000Y-143250000D03*
D59*
X101070000Y-144320000D03*
D60*
X105250000Y-144320000D03*
D59*
X101070000Y-135680000D03*
D60*
X105250000Y-135680000D03*
%TD*%
D16*
%TO.C,C31*%
X152925000Y-101500000D03*
X154475000Y-101500000D03*
%TD*%
D61*
%TO.C,AE1*%
X194421900Y-103500000D03*
X197578100Y-103500000D03*
%TD*%
D40*
%TO.C,C40*%
X188500000Y-103820000D03*
X188500000Y-103180000D03*
%TD*%
D25*
%TO.C,R37*%
X155925000Y-139725000D03*
X157575000Y-139725000D03*
%TD*%
D62*
%TO.C,J5*%
X134250000Y-144550000D03*
X133000000Y-144550000D03*
X131750000Y-144550000D03*
D63*
X136100000Y-147900000D03*
X129900000Y-147900000D03*
%TD*%
D64*
%TO.C,SW2*%
X121500000Y-145125000D03*
X127500000Y-145125000D03*
X121500000Y-148875000D03*
X127500000Y-148875000D03*
%TD*%
D33*
%TO.C,R27*%
X178080000Y-108200000D03*
X178720000Y-108200000D03*
%TD*%
D16*
%TO.C,C59*%
X153225000Y-131000000D03*
X154775000Y-131000000D03*
%TD*%
D25*
%TO.C,R18*%
X123175000Y-132000000D03*
X124825000Y-132000000D03*
%TD*%
D27*
%TO.C,C49*%
X151500000Y-140950000D03*
X151500000Y-139050000D03*
%TD*%
D25*
%TO.C,R22*%
X136175000Y-142000000D03*
X137825000Y-142000000D03*
%TD*%
%TO.C,R25*%
X123175000Y-130000000D03*
X124825000Y-130000000D03*
%TD*%
D16*
%TO.C,C71*%
X161314000Y-122383000D03*
X162864000Y-122383000D03*
%TD*%
%TO.C,C38*%
X152925000Y-117500000D03*
X154475000Y-117500000D03*
%TD*%
D25*
%TO.C,R26*%
X127175000Y-130000000D03*
X128825000Y-130000000D03*
%TD*%
D23*
%TO.C,C46*%
X139050000Y-131500000D03*
X140950000Y-131500000D03*
%TD*%
D40*
%TO.C,C53*%
X179250000Y-110140000D03*
X179250000Y-109500000D03*
%TD*%
D32*
%TO.C,C75*%
X170833000Y-132148000D03*
X169283000Y-132148000D03*
%TD*%
D65*
%TO.C,U7*%
X161074900Y-132871000D03*
X161724900Y-132871000D03*
X162374900Y-132871000D03*
X163024900Y-132871000D03*
X163675100Y-132871000D03*
X164325100Y-132871000D03*
X164975100Y-132871000D03*
X165625100Y-132871000D03*
X166275100Y-132871000D03*
X166925100Y-132871000D03*
X166925100Y-127129000D03*
X166275100Y-127129000D03*
X165625100Y-127129000D03*
X164975100Y-127129000D03*
X164325100Y-127129000D03*
X163675100Y-127129000D03*
X163024900Y-127129000D03*
X162374900Y-127129000D03*
X161724900Y-127129000D03*
X161074900Y-127129000D03*
%TD*%
D16*
%TO.C,C35*%
X172025000Y-105400000D03*
X173575000Y-105400000D03*
%TD*%
D32*
%TO.C,C70*%
X174525000Y-127625000D03*
X172975000Y-127625000D03*
%TD*%
D16*
%TO.C,C30*%
X149225000Y-117200000D03*
X150775000Y-117200000D03*
%TD*%
D64*
%TO.C,SW1*%
X113000000Y-145125000D03*
X119000000Y-145125000D03*
X113000000Y-148875000D03*
X119000000Y-148875000D03*
%TD*%
D16*
%TO.C,C25*%
X149225000Y-106200000D03*
X150775000Y-106200000D03*
%TD*%
%TO.C,C74*%
X157225000Y-121000000D03*
X158775000Y-121000000D03*
%TD*%
D32*
%TO.C,C77*%
X178775000Y-144000000D03*
X177225000Y-144000000D03*
%TD*%
D33*
%TO.C,L3*%
X177580000Y-110140000D03*
X178220000Y-110140000D03*
%TD*%
D66*
%TO.C,D1*%
X106650000Y-129000000D03*
X107350000Y-129000000D03*
%TD*%
D32*
%TO.C,C37*%
X156075000Y-114655000D03*
X154525000Y-114655000D03*
%TD*%
D36*
%TO.C,J7*%
X197375100Y-137000000D03*
X191374800Y-137000000D03*
D37*
X197824900Y-133600000D03*
X190925000Y-133600000D03*
D38*
X195074900Y-140399800D03*
D39*
X189275000Y-140400000D03*
%TD*%
D26*
%TO.C,R29*%
X162325000Y-136500000D03*
X160675000Y-136500000D03*
%TD*%
D25*
%TO.C,R17*%
X109675000Y-131500000D03*
X111325000Y-131500000D03*
%TD*%
D17*
%TO.C,R20*%
X132000000Y-134825000D03*
X132000000Y-133175000D03*
%TD*%
D23*
%TO.C,C39*%
X147050000Y-119500000D03*
X148950000Y-119500000D03*
%TD*%
D66*
%TO.C,D2*%
X110150000Y-129000000D03*
X110850000Y-129000000D03*
%TD*%
D16*
%TO.C,C66*%
X169425000Y-124953000D03*
X170975000Y-124953000D03*
%TD*%
D67*
%TO.C,U3*%
X175950000Y-110805200D03*
X175950000Y-110155000D03*
X175950000Y-109504700D03*
X175950000Y-108854500D03*
D68*
X174990600Y-107890000D03*
X174340400Y-107890000D03*
X173690100Y-107890000D03*
X173039900Y-107890000D03*
D67*
X172050000Y-108849400D03*
X172050000Y-109499600D03*
X172050000Y-110149900D03*
X172050000Y-110800100D03*
D68*
X173039900Y-111790000D03*
X173690100Y-111790000D03*
X174340400Y-111790000D03*
X174990600Y-111790000D03*
D69*
X174000000Y-109840000D03*
%TD*%
D17*
%TO.C,R28*%
X178500000Y-116325000D03*
X178500000Y-114675000D03*
%TD*%
D25*
%TO.C,R31*%
X176823000Y-127668000D03*
X178473000Y-127668000D03*
%TD*%
D40*
%TO.C,C54*%
X181950000Y-110140000D03*
X181950000Y-109500000D03*
%TD*%
D32*
%TO.C,C36*%
X156075000Y-112345000D03*
X154525000Y-112345000D03*
%TD*%
D16*
%TO.C,C73*%
X157225000Y-137000000D03*
X158775000Y-137000000D03*
%TD*%
%TO.C,C69*%
X183475000Y-120000000D03*
X185025000Y-120000000D03*
%TD*%
D17*
%TO.C,R30*%
X160000000Y-140825000D03*
X160000000Y-139175000D03*
%TD*%
D16*
%TO.C,C67*%
X174225000Y-121000000D03*
X175775000Y-121000000D03*
%TD*%
D33*
%TO.C,L4*%
X180280000Y-110140000D03*
X180920000Y-110140000D03*
%TD*%
D23*
%TO.C,C50*%
X141050000Y-147000000D03*
X142950000Y-147000000D03*
%TD*%
D16*
%TO.C,C26*%
X149225000Y-108400000D03*
X150775000Y-108400000D03*
%TD*%
D23*
%TO.C,C58*%
X153050000Y-133500000D03*
X154950000Y-133500000D03*
%TD*%
D70*
%TO.C,C47*%
X146000000Y-132275000D03*
X146000000Y-130725000D03*
%TD*%
D23*
%TO.C,C45*%
X135050000Y-131500000D03*
X136950000Y-131500000D03*
%TD*%
D16*
%TO.C,C79*%
X173225000Y-137500000D03*
X174775000Y-137500000D03*
%TD*%
D25*
%TO.C,R33*%
X174175000Y-124000000D03*
X175825000Y-124000000D03*
%TD*%
%TO.C,R16*%
X106175000Y-131500000D03*
X107825000Y-131500000D03*
%TD*%
D23*
%TO.C,C56*%
X153050000Y-136500000D03*
X154950000Y-136500000D03*
%TD*%
D16*
%TO.C,C72*%
X172225000Y-119000000D03*
X173775000Y-119000000D03*
%TD*%
%TO.C,C28*%
X149225000Y-112800000D03*
X150775000Y-112800000D03*
%TD*%
%TO.C,C64*%
X157225000Y-133500000D03*
X158775000Y-133500000D03*
%TD*%
D17*
%TO.C,R13*%
X169250000Y-116575000D03*
X169250000Y-114925000D03*
%TD*%
%TO.C,R15*%
X173250000Y-116575000D03*
X173250000Y-114925000D03*
%TD*%
D71*
%TO.C,J3*%
X185460000Y-146000000D03*
X190540000Y-144984000D03*
X190540000Y-147016000D03*
D72*
X186730000Y-146635000D03*
X186730000Y-145365000D03*
X188000000Y-146635000D03*
X188000000Y-145365000D03*
X189270000Y-146635000D03*
X189270000Y-145365000D03*
%TD*%
D25*
%TO.C,R42*%
X102675000Y-131500000D03*
X104325000Y-131500000D03*
%TD*%
%TO.C,R36*%
X184675000Y-126750000D03*
X186325000Y-126750000D03*
%TD*%
D73*
%TO.C,U2*%
X162750100Y-107250100D03*
X163249900Y-107250100D03*
X163750100Y-107250100D03*
X164249900Y-107250100D03*
X164750100Y-107250100D03*
X165249900Y-107250100D03*
X165750100Y-107250100D03*
X166249900Y-107250100D03*
X166750100Y-107250100D03*
X167249900Y-112749900D03*
X161249900Y-113000100D03*
X162000000Y-113250100D03*
X163000000Y-113250100D03*
X163500100Y-113250100D03*
X164000000Y-113250100D03*
X164500100Y-113250100D03*
X165000000Y-113250100D03*
X165500100Y-113250100D03*
X166000000Y-113250100D03*
X167249900Y-113250100D03*
X161249900Y-113749900D03*
X161750100Y-113749900D03*
X162249900Y-113749900D03*
X162750100Y-113749900D03*
X163249900Y-113749900D03*
X163750100Y-113749900D03*
X164249900Y-113749900D03*
X164750100Y-113749900D03*
X165249900Y-113749900D03*
X165750100Y-113749900D03*
X166249900Y-113749900D03*
X166750100Y-113749900D03*
X160750100Y-107749900D03*
X161500100Y-107749900D03*
X162000000Y-107749900D03*
X162500100Y-107749900D03*
X163000000Y-107749900D03*
X163500100Y-107749900D03*
X164000000Y-107749900D03*
X164500100Y-107749900D03*
X165000000Y-107749900D03*
X165500100Y-107749900D03*
X167249900Y-107749900D03*
X160750100Y-108250100D03*
X161249900Y-108500000D03*
X166750100Y-108500000D03*
X167249900Y-108749900D03*
D74*
X164000000Y-110500000D03*
D73*
X161249900Y-109000100D03*
X166750100Y-109000100D03*
X160750100Y-109250100D03*
X161249900Y-109500000D03*
X166750100Y-109500000D03*
X160750100Y-109749900D03*
X167249900Y-109749900D03*
X161249900Y-110000100D03*
X160750100Y-110250100D03*
X167249900Y-110250100D03*
X161249900Y-110500000D03*
X160750100Y-110749900D03*
X167249900Y-110749900D03*
X161249900Y-111000100D03*
X166750100Y-110999900D03*
X160750100Y-111250100D03*
X167249900Y-111250100D03*
X161249900Y-111500000D03*
X166750100Y-111500000D03*
X160750100Y-111749900D03*
X167249900Y-111749900D03*
X166750100Y-111999900D03*
X160750100Y-112250100D03*
X167249900Y-112250100D03*
X161249900Y-112500000D03*
X166750100Y-112500000D03*
%TD*%
D16*
%TO.C,C42*%
X120225000Y-135000000D03*
X121775000Y-135000000D03*
%TD*%
%LPD*%
M02*
