%TF.GenerationSoftware,KiCad,Pcbnew,10.0.4-1.fc44*%
%TF.CreationDate,2026-07-28T12:04:37+02:00*%
%TF.ProjectId,omi,6f6d692e-6b69-4636-9164-5f7063625858,rev?*%
%TF.SameCoordinates,Original*%
%TF.FileFunction,Legend,Bot*%
%TF.FilePolarity,Positive*%
%FSLAX46Y46*%
G04 Gerber Fmt 4.6, Leading zero omitted, Abs format (unit mm)*
G04 Created by KiCad (PCBNEW 10.0.4-1.fc44) date 2026-07-28 12:04:37*
%MOMM*%
%LPD*%
G01*
G04 APERTURE LIST*
G04 Aperture macros list*
%AMRoundRect*
0 Rectangle with rounded corners*
0 $1 Rounding radius*
0 $2 $3 $4 $5 $6 $7 $8 $9 X,Y pos of 4 corners*
0 Add a 4 corners polygon primitive as box body*
4,1,4,$2,$3,$4,$5,$6,$7,$8,$9,$2,$3,0*
0 Add four circle primitives for the rounded corners*
1,1,$1+$1,$2,$3*
1,1,$1+$1,$4,$5*
1,1,$1+$1,$6,$7*
1,1,$1+$1,$8,$9*
0 Add four rect primitives between the rounded corners*
20,1,$1+$1,$2,$3,$4,$5,0*
20,1,$1+$1,$4,$5,$6,$7,0*
20,1,$1+$1,$6,$7,$8,$9,0*
20,1,$1+$1,$8,$9,$2,$3,0*%
G04 Aperture macros list end*
%ADD10C,0.150000*%
%ADD11C,0.120000*%
%ADD12C,1.500000*%
%ADD13R,1.700000X1.700000*%
%ADD14C,1.700000*%
%ADD15C,0.850000*%
%ADD16C,0.650000*%
%ADD17O,2.100000X1.000000*%
%ADD18O,1.600000X1.000000*%
%ADD19C,0.990600*%
%ADD20RoundRect,0.225000X0.225000X0.250000X-0.225000X0.250000X-0.225000X-0.250000X0.225000X-0.250000X0*%
G04 APERTURE END LIST*
D10*
X168042857Y-108929580D02*
X168090476Y-108977200D01*
X168090476Y-108977200D02*
X168233333Y-109024819D01*
X168233333Y-109024819D02*
X168328571Y-109024819D01*
X168328571Y-109024819D02*
X168471428Y-108977200D01*
X168471428Y-108977200D02*
X168566666Y-108881961D01*
X168566666Y-108881961D02*
X168614285Y-108786723D01*
X168614285Y-108786723D02*
X168661904Y-108596247D01*
X168661904Y-108596247D02*
X168661904Y-108453390D01*
X168661904Y-108453390D02*
X168614285Y-108262914D01*
X168614285Y-108262914D02*
X168566666Y-108167676D01*
X168566666Y-108167676D02*
X168471428Y-108072438D01*
X168471428Y-108072438D02*
X168328571Y-108024819D01*
X168328571Y-108024819D02*
X168233333Y-108024819D01*
X168233333Y-108024819D02*
X168090476Y-108072438D01*
X168090476Y-108072438D02*
X168042857Y-108120057D01*
X167661904Y-108120057D02*
X167614285Y-108072438D01*
X167614285Y-108072438D02*
X167519047Y-108024819D01*
X167519047Y-108024819D02*
X167280952Y-108024819D01*
X167280952Y-108024819D02*
X167185714Y-108072438D01*
X167185714Y-108072438D02*
X167138095Y-108120057D01*
X167138095Y-108120057D02*
X167090476Y-108215295D01*
X167090476Y-108215295D02*
X167090476Y-108310533D01*
X167090476Y-108310533D02*
X167138095Y-108453390D01*
X167138095Y-108453390D02*
X167709523Y-109024819D01*
X167709523Y-109024819D02*
X167090476Y-109024819D01*
X166614285Y-109024819D02*
X166423809Y-109024819D01*
X166423809Y-109024819D02*
X166328571Y-108977200D01*
X166328571Y-108977200D02*
X166280952Y-108929580D01*
X166280952Y-108929580D02*
X166185714Y-108786723D01*
X166185714Y-108786723D02*
X166138095Y-108596247D01*
X166138095Y-108596247D02*
X166138095Y-108215295D01*
X166138095Y-108215295D02*
X166185714Y-108120057D01*
X166185714Y-108120057D02*
X166233333Y-108072438D01*
X166233333Y-108072438D02*
X166328571Y-108024819D01*
X166328571Y-108024819D02*
X166519047Y-108024819D01*
X166519047Y-108024819D02*
X166614285Y-108072438D01*
X166614285Y-108072438D02*
X166661904Y-108120057D01*
X166661904Y-108120057D02*
X166709523Y-108215295D01*
X166709523Y-108215295D02*
X166709523Y-108453390D01*
X166709523Y-108453390D02*
X166661904Y-108548628D01*
X166661904Y-108548628D02*
X166614285Y-108596247D01*
X166614285Y-108596247D02*
X166519047Y-108643866D01*
X166519047Y-108643866D02*
X166328571Y-108643866D01*
X166328571Y-108643866D02*
X166233333Y-108596247D01*
X166233333Y-108596247D02*
X166185714Y-108548628D01*
X166185714Y-108548628D02*
X166138095Y-108453390D01*
%TO.C,C29*%
D11*
X167540580Y-109490000D02*
X167259420Y-109490000D01*
X167540580Y-110510000D02*
X167259420Y-110510000D01*
%TD*%
%LPC*%
D12*
%TO.C,J6*%
X197375100Y-122000000D03*
X191374800Y-122000000D03*
%TD*%
D13*
%TO.C,J8*%
X160000000Y-146000000D03*
D14*
X162540000Y-146000000D03*
X165080000Y-146000000D03*
X167620000Y-146000000D03*
X170160000Y-146000000D03*
X172700000Y-146000000D03*
%TD*%
D15*
%TO.C,SW3*%
X149500000Y-146700000D03*
X152500000Y-146700000D03*
%TD*%
D16*
%TO.C,J4*%
X101600000Y-142890000D03*
X101600000Y-137110000D03*
D17*
X101070000Y-144320000D03*
D18*
X105250000Y-144320000D03*
D17*
X101070000Y-135680000D03*
D18*
X105250000Y-135680000D03*
%TD*%
D12*
%TO.C,J7*%
X197375100Y-137000000D03*
X191374800Y-137000000D03*
%TD*%
D19*
%TO.C,J3*%
X185460000Y-146000000D03*
X190540000Y-144984000D03*
X190540000Y-147016000D03*
%TD*%
D20*
%TO.C,C29*%
X168175000Y-110000000D03*
X166625000Y-110000000D03*
%TD*%
%LPD*%
M02*
