M48
; DRILL file KiCad 10.0.4-1.fc44 date 2026-07-28T12:04:37
; FORMAT={-:-/ absolute / metric / decimal}
; #@! TF.CreationDate,2026-07-28T12:04:37+02:00
; #@! TF.GenerationSoftware,Kicad,Pcbnew,10.0.4-1.fc44
; #@! TF.FileFunction,Plated,1,4,PTH
FMAT,2
METRIC
; #@! TA.AperFunction,Plated,PTH,ViaDrill
T1C0.200
; #@! TA.AperFunction,Plated,PTH,ComponentDrill
T2C0.200
; #@! TA.AperFunction,Plated,PTH,ViaDrill
T3C0.300
; #@! TA.AperFunction,Plated,PTH,ComponentDrill
T4C0.600
; #@! TA.AperFunction,Plated,PTH,ComponentDrill
T5C1.000
%
G90
G05
T1
X100.8Y-142.4
X152.0Y-115.5
X153.0Y-109.0
X154.525Y-113.3
X154.525Y-116.0
X158.775Y-130.5
X160.1Y-109.2
X160.9Y-106.4
X161.26Y-111.93
X161.8Y-104.5
X162.0Y-106.5
X162.0Y-108.5
X162.0Y-112.5
X163.4Y-103.0
X163.4Y-106.7
X164.0Y-103.5
X164.325Y-125.6
X164.59Y-104.0
X165.0Y-102.0
X165.5Y-112.5
X165.75Y-106.0
X166.0Y-108.5
X168.0Y-112.3
X168.6Y-108.25
X169.2Y-108.85
X169.8Y-108.849
X169.8Y-113.0
X171.2Y-110.15
X173.575Y-105.4
X173.69Y-112.6
X173.9Y-101.35
X175.175Y-135.2
X176.1Y-103.05
X176.825Y-133.0
X176.875Y-105.4
X178.8Y-135.2
X179.2Y-135.8
X179.2Y-139.9
X179.5Y-122.62
X180.0Y-134.6
X180.38Y-122.62
X180.4Y-139.9
X180.8Y-134.8
T2
X119.1Y-115.76
X119.1Y-117.16
X119.8Y-115.06
X119.8Y-116.46
X119.8Y-117.86
X120.5Y-115.76
X120.5Y-117.16
X121.2Y-115.06
X121.2Y-116.46
X121.2Y-117.86
X121.9Y-115.76
X121.9Y-117.16
T3
X100.75Y-112.75
X100.75Y-118.75
X100.75Y-124.75
X101.2Y-138.25
X101.2Y-139.25
X101.2Y-140.25
X102.0Y-142.0
X103.5Y-139.75
X105.25Y-130.6
X105.5Y-137.7
X106.75Y-112.75
X106.75Y-118.75
X106.75Y-136.75
X106.75Y-142.75
X108.5Y-137.0
X108.5Y-138.75
X108.5Y-141.2
X108.8Y-133.5
X111.4Y-123.98
X111.8Y-117.63
X111.8Y-118.9
X112.75Y-148.75
X114.2Y-125.25
X114.784Y-116.288
X115.033Y-112.081
X116.0Y-108.0
X116.13Y-110.213
X116.393Y-113.455
X116.404Y-130.905
X117.5Y-135.5
X117.56Y-130.54
X118.75Y-112.75
X118.75Y-124.75
X118.75Y-148.75
X118.865Y-131.12
X120.0Y-136.8
X120.0Y-143.0
X120.015Y-144.847
X120.195Y-132.0
X121.182Y-136.091
X121.3Y-127.1
X121.505Y-128.66
X121.652Y-130.905
X121.937Y-124.692
X122.0Y-108.0
X122.003Y-136.875
X122.936Y-136.61
X123.2Y-124.4
X123.905Y-128.0
X124.75Y-112.75
X124.75Y-124.75
X124.793Y-140.085
X125.291Y-128.701
X125.825Y-129.894
X126.5Y-141.5
X127.897Y-110.234
X127.897Y-146.323
X128.0Y-108.0
X128.0Y-114.0
X128.227Y-142.834
X128.729Y-135.922
X128.849Y-136.9
X129.912Y-130.029
X130.75Y-136.75
X131.165Y-140.233
X132.0Y-131.0
X132.0Y-137.0
X132.088Y-112.737
X132.2Y-123.98
X133.7Y-129.8
X133.792Y-116.14
X134.6Y-129.8
X134.808Y-142.22
X136.75Y-124.75
X137.188Y-145.211
X138.059Y-143.464
X138.5Y-141.0
X139.381Y-146.311
X140.788Y-145.482
X142.2Y-134.5
X142.75Y-112.75
X142.75Y-124.75
X142.75Y-148.75
X143.0Y-137.0
X143.0Y-143.0
X143.4Y-139.22
X143.8Y-134.3
X145.088Y-119.706
X146.0Y-135.5
X146.152Y-136.957
X147.0Y-142.1
X147.801Y-101.431
X147.914Y-104.288
X147.914Y-106.632
X148.035Y-108.639
X148.75Y-124.75
X148.75Y-148.75
X149.0Y-131.0
X149.0Y-134.95
X149.0Y-137.0
X149.454Y-116.1
X150.443Y-140.055
X150.63Y-113.835
X151.1Y-123.6
X151.275Y-122.354
X151.275Y-136.811
X151.297Y-131.194
X151.31Y-134.124
X151.75Y-143.8
X151.8Y-106.2
X151.866Y-120.885
X152.0Y-101.5
X152.072Y-116.743
X152.149Y-127.096
X153.4Y-103.8
X153.893Y-139.531
X154.75Y-100.75
X154.75Y-106.75
X154.75Y-130.75
X154.75Y-136.75
X156.364Y-123.041
X156.548Y-127.13
X156.628Y-136.021
X157.002Y-122.392
X157.3Y-113.5
X158.4Y-104.1
X158.513Y-106.521
X159.1Y-115.6
X159.371Y-111.246
X159.374Y-118.109
X159.685Y-107.541
X159.735Y-112.04
X159.907Y-132.042
X159.969Y-110.512
X159.992Y-126.382
X160.291Y-122.538
X160.6Y-113.8
X160.75Y-148.75
X160.8Y-115.2
X160.995Y-138.657
X161.0Y-116.65
X161.081Y-124.69
X162.377Y-115.213
X162.8Y-104.1
X162.8Y-134.7
X163.082Y-124.615
X163.2Y-116.0
X163.793Y-115.238
X165.0Y-103.5
X165.2Y-116.0
X165.228Y-106.494
X165.68Y-104.861
X165.847Y-125.658
X165.869Y-122.588
X165.962Y-134.538
X166.704Y-124.89
X166.75Y-100.75
X166.75Y-118.75
X166.75Y-136.75
X166.75Y-148.75
X168.0Y-103.84
X168.0Y-115.84
X168.124Y-107.736
X168.25Y-114.0
X168.4Y-117.2
X169.5Y-112.0
X170.0Y-116.5
X170.0Y-136.0
X170.3Y-113.8
X170.5Y-123.5
X171.677Y-107.824
X171.7Y-132.148
X171.748Y-112.001
X171.911Y-128.38
X171.99Y-112.73
X172.0Y-116.0
X172.0Y-121.368
X172.75Y-112.75
X172.75Y-130.75
X172.75Y-142.75
X172.75Y-148.75
X173.051Y-124.387
X174.0Y-115.84
X174.0Y-132.0
X174.0Y-144.0
X174.1Y-114.3
X174.5Y-136.5
X175.051Y-113.477
X175.641Y-128.149
X175.845Y-108.062
X176.8Y-108.85
X177.0Y-141.0
X177.2Y-122.251
X177.3Y-115.8
X177.5Y-113.5
X177.873Y-121.34
X178.8Y-120.2
X178.8Y-140.5
X178.8Y-143.3
X179.25Y-108.8
X179.5Y-127.668
X179.6Y-140.9
X179.746Y-120.195
X180.0Y-103.84
X180.0Y-117.0
X180.0Y-138.0
X180.8Y-140.5
X181.654Y-121.452
X181.654Y-124.525
X181.95Y-108.8
X182.5Y-135.5
X184.675Y-128.0
X186.0Y-117.0
X186.73Y-143.9
X186.839Y-148.569
X187.714Y-124.629
X188.0Y-143.9
X188.5Y-102.45
X189.27Y-149.18
X192.5Y-102.45
X196.3Y-118.6
T5
X160.0Y-146.0
X162.54Y-146.0
X165.08Y-146.0
X167.62Y-146.0
X170.16Y-146.0
X172.7Y-146.0
T4
X100.52Y-135.68G85X101.62Y-135.68
G05
X100.52Y-144.32G85X101.62Y-144.32
G05
X104.95Y-135.68G85X105.55Y-135.68
G05
X104.95Y-144.32G85X105.55Y-144.32
G05
M30
